<?xml version="1.0" encoding="utf-8"?>
<!-- Generator: Adobe Illustrator 17.1.0, SVG Export Plug-In . SVG Version: 6.00 Build 0)  -->
<!DOCTYPE svg PUBLIC "-//W3C//DTD SVG 1.1//EN" "http://www.w3.org/Graphics/SVG/1.1/DTD/svg11.dtd">
<svg version="1.1" id="Layer_1" xmlns="http://www.w3.org/2000/svg" xmlns:xlink="http://www.w3.org/1999/xlink" x="0px" y="0px"
	 viewBox="-51.9 121.9 501.9 78.5" enable-background="new -51.9 121.9 501.9 78.5" xml:space="preserve">
<g display="none">
	<g display="inline">
		<polygon opacity="0.25" fill="#121921" enable-background="new    " points="365.5,121.9 365.5,163.2 353.4,163.2 347.8,163.2 
			340.2,163.2 340.2,121.9 340,121.9 340,163.3 347.8,163.3 353.4,163.3 365.7,163.3 365.7,121.9 		"/>
		<polygon opacity="0.25" fill="#121921" enable-background="new    " points="323,121.9 323,163.2 310.9,163.2 305.3,163.2 
			297.7,163.2 297.7,121.9 297.5,142.7 297.5,163.3 305.3,163.3 310.9,163.3 323.2,163.3 323.2,121.9 		"/>
		<polygon opacity="0.25" fill="#121921" enable-background="new    " points="407.9,121.9 407.9,163.2 395.9,163.2 390.3,163.2 
			382.7,163.2 382.7,121.9 382.5,121.9 382.5,163.3 390.3,163.3 395.9,163.3 408.1,163.3 408.1,121.9 		"/>
	</g>
	
		<rect id="background_2_" x="242.5" y="121.9" display="inline" opacity="0.8" fill="#121921" enable-background="new    " width="15.7" height="78.8"/>
	<rect x="-76.5" y="121.9" display="inline" fill="#E4E2E0" width="329.3" height="78.8"/>
	<g display="inline" opacity="0.15">
		<g opacity="0.2">
			<rect x="-76.5" y="130.1" fill="#23356E" width="315.9" height="0.6"/>
			<rect x="-76.5" y="130.7" fill="#FFFFFF" width="315.9" height="3.1"/>
		</g>
		<g opacity="0.2">
			<rect x="-76.5" y="144.5" fill="#121921" width="315.9" height="0.6"/>
			<rect x="-76.5" y="145" fill="#FFFFFF" width="315.9" height="3.1"/>
		</g>
		<g opacity="0.2">
			<rect x="-76.5" y="158.7" fill="#121921" width="315.9" height="0.6"/>
			<rect x="-76.5" y="159.2" fill="#FFFFFF" width="315.9" height="3.1"/>
		</g>
		<g opacity="0.2">
			<rect x="-76.5" y="173" fill="#121921" width="315.9" height="0.6"/>
			<rect x="-76.5" y="173.6" fill="#FFFFFF" width="315.9" height="3.1"/>
		</g>
		<g opacity="0.2">
			<rect x="-76.5" y="187.4" fill="#121921" width="315.9" height="0.6"/>
			<rect x="-76.5" y="187.9" fill="#FFFFFF" width="315.9" height="3.1"/>
		</g>
	</g>
	<polygon display="inline" fill="#76797C" points="258.2,158.3 257.2,158.3 257.5,161.4 258.2,161.4 	"/>
	<rect x="258.1" y="121.9" display="inline" fill="#7FADAD" width="181.6" height="78.8"/>
	<rect x="258.2" y="121.8" display="inline" fill="none" width="189.4" height="79.2"/>
	<g display="inline" opacity="0.25">
		<polygon fill="#121921" points="313,167.5 327.4,167.5 327.4,121.8 327.2,121.8 327.2,167.4 313,167.4 307.5,167.4 293.3,167.4 
			293.3,121.8 293.1,121.8 293.1,167.5 307.5,167.5 		"/>
		<polygon fill="#121921" points="327.9,121.8 327.9,168.1 313,168.1 307.5,168.1 292.6,168.1 292.6,121.8 292.4,121.8 292.4,168.3 
			307.5,168.3 313,168.3 328.1,168.3 328.1,121.8 		"/>
	</g>
	<g display="inline" opacity="0.25">
		<polygon fill="#121921" points="355.5,167.5 369.8,167.5 369.8,121.8 369.7,121.8 369.7,167.4 355.5,167.4 350,167.4 335.8,167.4 
			335.8,121.8 335.6,121.8 335.6,167.5 350,167.5 		"/>
		<polygon fill="#121921" points="370.4,121.8 370.4,168.1 355.5,168.1 350,168.1 335.1,168.1 335.1,121.8 334.9,121.8 334.9,168.3 
			350,168.3 355.5,168.3 370.5,168.3 370.5,121.8 		"/>
	</g>
	<g display="inline">
		<g>
			<g>
				<path fill="#D0CFCE" d="M284.7,143.3h-3c-0.9-1.9-2.8-3.3-5.1-3.3s-4.2,1.3-5.1,3.3h-3v36.5h3.2c0.9,1.7,2.8,2.9,4.9,2.9
					s3.9-1.2,4.9-2.9h3.2L284.7,143.3L284.7,143.3z"/>
				<g>
					<path fill="#D0CFCE" d="M276.6,181c-1.6,0-3-0.9-3.8-2.3l-0.4-0.7h-2.7v-34h2.6l0.3-0.7c0.7-1.6,2.2-2.6,3.9-2.6
						c1.7,0,3.2,1,3.9,2.6l0.3,0.7h2.6v34h-2.7l-0.4,0.7C279.7,180.1,278.2,181,276.6,181z"/>
					<path fill="#E6E6E5" d="M276.6,142c1.2,0,2.3,0.7,2.8,1.8l0.7,1.5h1.6h0.5v31.6h-0.7H280l-0.7,1.3c-0.5,1-1.6,1.6-2.7,1.6
						c-1.1,0-2.2-0.6-2.7-1.6l-0.7-1.3h-1.5h-0.7v-31.5h0.5h1.6l0.7-1.5C274.3,142.7,275.4,142,276.6,142 M276.6,139.5
						c-2.2,0-4.2,1.3-5.1,3.3h-3v36.5h3.2c0.9,1.7,2.8,2.9,4.9,2.9s3.9-1.2,4.9-2.9h3.2v-36.5h-3
						C280.8,140.8,278.9,139.5,276.6,139.5L276.6,139.5z"/>
				</g>
				<rect x="282.3" y="144.8" fill="#FFFFFF" width="0.4" height="32.4"/>
				<rect x="270.6" y="144.8" fill="#FFFFFF" width="0.4" height="32.4"/>
				<path opacity="0.2" fill="#121921" enable-background="new    " d="M300.5,161.2c0,0-4.7-4.7-18.3,0.1c0,0-4.5,2.2-8.5-3.6
					c-0.1-0.2-0.2-0.3-0.3-0.5l0,0l0,0c-0.6-0.7-1.4-1.2-2.3-1.3c-2.2-0.3-4-1.4-4.3,1.1c-0.3,2.6,0.5,4.1,3,6.2
					c0,0,6.3,3.6,18.1-0.4c0,0,8.6-2.5,12.2,1.6c0,0,1.3,1,1.9,0.2C302.5,163.8,302.1,162.9,300.5,161.2z"/>
				<g>
					<path fill="#B9BABD" d="M301.9,156.7c0,0-5.2-4.3-18.9,1.6c0,0-4.4,2.5-9.1-2.8c-0.1-0.2-0.2-0.3-0.4-0.4l0,0l0,0
						c-0.7-0.7-1.6-1.1-2.5-1.2c-2.2-0.1-4.2,1.9-4.3,4.5c-0.1,2.6,1.6,4.7,3.8,4.9c0,0,6.7,1.1,18.5-3.8c0,0,8.7-3.2,12.8,0.6
						c0,0,1.4,0.9,2,0C304.2,159.1,303.7,158.3,301.9,156.7z"/>
				</g>
			</g>
			<path opacity="0.6" fill="#333333" enable-background="new    " d="M277.6,167.5c0-0.5-0.4-0.9-0.9-0.9s-0.9,0.4-0.9,0.9
				c0,0.3,0.2,0.6,0.4,0.7v1.2c0,0.2,0.2,0.4,0.4,0.4h0.2c0.2,0,0.4-0.2,0.4-0.4v-1.2C277.4,168,277.6,167.8,277.6,167.5z"/>
			<circle fill="#B9BABD" cx="276.6" cy="145.9" r="0.8"/>
			<circle fill="#B9BABD" cx="276.6" cy="175" r="0.8"/>
		</g>
		<path fill="#FFFFFF" d="M285.2,157c-0.1,0-0.2,0-0.3,0c-1.1,0.6-5.8,2.9-10-2.1c-0.1-0.2-0.2-0.3-0.4-0.5l0,0l0,0
			c-0.7-0.7-1.6-1.2-2.7-1.3c-2.5-0.2-4.7,1.6-5.1,4.2c-0.2,1.9,0.7,3.7,2.2,4.5c0.7-0.8,1.7-1.3,2.9-1.3c0.8,0,1.5,0.2,2.1,0.7
			c0.2,0,0.4,0,0.6,0c0.7,0,1.5,0.2,2.1,0.6c0.6-0.4,1.4-0.7,2.2-0.7c0.1,0,0.2,0,0.4,0c0.6-0.5,1.4-0.7,2.2-0.7c0.2,0,0.4,0,0.5,0
			c0.7-0.6,1.6-1,2.5-1c0.1,0,0.2,0,0.3,0c0.2-0.1,0.5-0.2,0.8-0.3c0,0,0,0,0-0.1c0.1-0.3,0.3-1.1,0.4-1.5
			C285.7,157.4,285.4,157.2,285.2,157z"/>
		<path fill="#E6E6E5" d="M301.7,156.2c0,0-5.2-4.3-18.9,1.6c0,0-4.4,2.5-9.1-2.8c-0.1-0.2-0.2-0.3-0.4-0.4l0,0l0,0
			c-0.7-0.7-1.6-1.1-2.5-1.2c-2.2-0.1-4.2,1.9-4.3,4.5c-0.1,2.6,1.6,4.7,3.9,4.9c0,0,6.7,1.1,18.5-3.8c0,0,8.7-3.2,12.8,0.6
			c0,0,1.4,0.9,2,0C304.1,158.6,303.6,157.7,301.7,156.2z"/>
	</g>
	<g display="inline" opacity="0.9">
		<polygon opacity="0.1" fill="#121921" enable-background="new    " points="242.5,187.3 241.6,187.3 240.6,173.6 242.5,173.6 		
			"/>
		<polygon opacity="0.1" fill="#121921" enable-background="new    " points="242.5,172.9 241.6,172.9 240.6,159.1 242.5,159.1 		
			"/>
		<polygon opacity="0.1" fill="#121921" enable-background="new    " points="242.5,158.8 241.6,158.8 240.6,145.1 242.5,145.1 		
			"/>
		<polygon opacity="0.1" fill="#121921" enable-background="new    " points="242.5,144.4 241.6,144.4 240.6,130.6 242.5,130.6 		
			"/>
		<polygon opacity="0.1" fill="#121921" enable-background="new    " points="241,121.6 241.6,130.3 242.5,130.3 242.5,121.6 		"/>
		<polygon opacity="0.1" fill="#121921" enable-background="new    " points="242.5,200.4 242.5,188.1 240.6,188.1 241.5,200.4 		
			"/>
	</g>
	<rect x="242.5" y="121.9" display="inline" fill="#FFFFFF" width="10.4" height="78.8"/>
	<rect x="248.2" y="121.9" display="inline" opacity="0.8" fill="#D3D8E2" enable-background="new    " width="0.6" height="78.8"/>
	<rect x="246.4" y="121.9" display="inline" opacity="0.8" fill="#D3D8E2" enable-background="new    " width="0.6" height="78.8"/>
	<rect x="250.6" y="121.9" display="inline" opacity="0.8" fill="#D3D8E2" enable-background="new    " width="1.3" height="78.8"/>
	<g display="inline">
		<g opacity="0.25">
			<polygon fill="#121921" points="392.6,175.5 378.1,175.5 378.1,200.8 378.3,200.8 378.3,175.7 392.6,175.7 398.1,175.7 
				412.4,175.7 412.4,200.8 412.5,200.8 412.5,175.5 398.1,175.5 			"/>
			<polygon fill="#121921" points="398.1,174.8 392.6,174.8 377.4,174.8 377.4,200.8 377.6,200.8 377.6,175 392.6,175 398.1,175 
				413.1,175 413.1,200.8 413.3,200.8 413.3,174.8 			"/>
		</g>
		<g opacity="0.25">
			<polygon fill="#121921" points="397.9,167.4 412.3,167.4 412.3,121.7 412.2,121.7 412.2,167.2 397.9,167.2 392.5,167.2 
				378.3,167.2 378.3,121.7 378.1,121.7 378.1,167.4 392.5,167.4 			"/>
			<polygon fill="#121921" points="412.8,121.7 412.8,168 397.9,168 392.5,168 377.6,168 377.6,121.7 377.4,121.7 377.4,168.1 
				392.5,168.1 397.9,168.1 413,168.1 413,121.7 			"/>
		</g>
		<g>
			<rect x="439.7" y="121.8" fill="#FFFFFF" width="10.4" height="78.8"/>
			<rect x="443.7" y="121.8" opacity="0.8" fill="#D3D8E2" enable-background="new    " width="0.6" height="78.8"/>
			<rect x="445.5" y="121.8" opacity="0.8" fill="#D3D8E2" enable-background="new    " width="0.6" height="78.8"/>
			<rect x="440.6" y="121.8" opacity="0.8" fill="#D3D8E2" enable-background="new    " width="1.3" height="78.8"/>
		</g>
		<polygon opacity="0.25" fill="#121921" enable-background="new    " points="382.7,200.5 382.7,180.1 394.8,180.1 400.3,180.1 
			407.9,180.1 407.9,200.5 408.1,200.5 408.1,179.9 400.3,179.9 394.8,179.9 382.5,179.9 382.5,200.5 		"/>
	</g>
	<polygon display="inline" opacity="0.25" fill="#121921" enable-background="new    " points="335.1,200.7 335.1,175.1 
		350.1,175.1 355.6,175.1 370.6,175.1 370.6,200.7 370.8,200.7 370.8,174.9 355.6,174.9 350.1,174.9 334.9,174.9 334.9,200.7 	"/>
	<polygon display="inline" opacity="0.25" fill="#121921" enable-background="new    " points="335.8,200.7 335.8,175.8 
		350.1,175.8 355.6,175.8 369.9,175.8 369.9,200.7 370.1,200.7 370.1,175.7 355.6,175.7 350.1,175.7 335.6,175.7 335.6,200.7 	"/>
	<polygon display="inline" opacity="0.25" fill="#121921" enable-background="new    " points="292.6,200.7 292.6,175.1 
		307.6,175.1 313.1,175.1 328.1,175.1 328.1,200.7 328.3,200.7 328.3,174.9 313.1,174.9 307.6,174.9 292.4,174.9 292.4,200.7 	"/>
	<polygon display="inline" opacity="0.25" fill="#121921" enable-background="new    " points="293.3,200.7 293.3,175.8 
		307.6,175.8 313.1,175.8 327.4,175.8 327.4,200.7 327.6,200.7 327.6,175.7 313.1,175.7 307.6,175.7 293.1,175.7 293.1,200.7 	"/>
	<polygon display="inline" opacity="0.25" fill="#101820" points="340.1,200.6 340.1,180.1 352.2,180.1 357.8,180.1 365.4,180.1 
		365.4,200.6 365.6,200.6 365.6,180 357.8,180 352.2,180 339.9,180 339.9,200.6 	"/>
	<polygon display="inline" opacity="0.25" fill="#101820" points="297.5,200.6 297.5,180.1 309.6,180.1 315.2,180.1 322.8,180.1 
		322.8,200.6 323,200.6 323,180 315.2,180 309.6,180 297.3,180 297.3,200.6 	"/>
</g>
<g>
	<g>
		<polygon opacity="0.25" fill="#121921" enable-background="new    " points="402.7,107.5 402.7,163.1 386.4,163.1 378.9,163.1 
			368.6,163.1 368.6,107.5 368.4,107.5 368.4,163.4 378.9,163.4 386.4,163.4 402.9,163.4 402.9,107.5 		"/>
		<polygon opacity="0.25" fill="#121921" enable-background="new    " points="345.4,107.5 345.4,163.1 329.1,163.1 321.7,163.1 
			311.4,163.1 311.4,107.5 311.1,135.6 311.1,163.4 321.7,163.4 329.1,163.4 345.7,163.4 345.7,107.5 		"/>
		<polygon opacity="0.25" fill="#121921" enable-background="new    " points="459.9,107.5 459.9,163.1 443.7,163.1 436.2,163.1 
			425.9,163.1 425.9,107.5 425.6,107.5 425.6,163.4 436.2,163.4 443.7,163.4 460.2,163.4 460.2,107.5 		"/>
	</g>
	
		<rect id="background_1_" x="237" y="107.5" opacity="0.8" fill="#121921" enable-background="new    " width="21.2" height="106.2"/>
	<rect x="-192.9" y="107.5" fill="#E4E2E0" width="443.8" height="106.2"/>
	<g opacity="0.15">
		<g opacity="0.2">
			<rect x="-192.9" y="118.6" fill="#23356E" width="425.6" height="0.8"/>
			<rect x="-192.9" y="119.4" fill="#FFFFFF" width="425.6" height="4.2"/>
		</g>
		<g opacity="0.2">
			<rect x="-192.9" y="138" fill="#121921" width="425.6" height="0.8"/>
			<rect x="-192.9" y="138.7" fill="#FFFFFF" width="425.6" height="4.2"/>
		</g>
		<g opacity="0.2">
			<rect x="-192.9" y="157.1" fill="#121921" width="425.6" height="0.8"/>
			<rect x="-192.9" y="157.8" fill="#FFFFFF" width="425.6" height="4.2"/>
		</g>
		<g opacity="0.2">
			<rect x="-192.9" y="176.5" fill="#121921" width="425.6" height="0.8"/>
			<rect x="-192.9" y="177.2" fill="#FFFFFF" width="425.6" height="4.2"/>
		</g>
		<g opacity="0.2">
			<rect x="-192.9" y="195.8" fill="#121921" width="425.6" height="0.8"/>
			<rect x="-192.9" y="196.6" fill="#FFFFFF" width="425.6" height="4.2"/>
		</g>
	</g>
	<polygon fill="#76797C" points="258.1,156.7 256.8,156.7 257.1,160.7 258.1,160.7 	"/>
	<rect x="258" y="107.5" fill="#7FADAD" width="244.7" height="106.2"/>
	<rect x="258.2" y="107.4" fill="none" width="255.3" height="106.8"/>
	<g opacity="0.25">
		<polygon fill="#121921" points="332,169.1 351.3,169.1 351.3,107.4 351.1,107.4 351.1,168.8 332,168.8 324.5,168.8 305.4,168.8 
			305.4,107.4 305.2,107.4 305.2,169.1 324.5,169.1 		"/>
		<polygon fill="#121921" points="352,107.4 352,169.8 332,169.8 324.5,169.8 304.5,169.8 304.5,107.4 304.2,107.4 304.2,170 
			324.5,170 332,170 352.3,170 352.3,107.4 		"/>
	</g>
	<g opacity="0.25">
		<polygon fill="#121921" points="389.2,169.1 408.6,169.1 408.6,107.4 408.3,107.4 408.3,168.8 389.2,168.8 381.8,168.8 
			362.7,168.8 362.7,107.4 362.5,107.4 362.5,169.1 381.8,169.1 		"/>
		<polygon fill="#121921" points="409.3,107.4 409.3,169.8 389.2,169.8 381.8,169.8 361.7,169.8 361.7,107.4 361.5,107.4 361.5,170 
			381.8,170 389.2,170 409.5,170 409.5,107.4 		"/>
	</g>
	<g>
		<g>
			<g>
				<path fill="#D0CFCE" d="M293.9,136.4h-4.1c-1.2-2.6-3.8-4.4-6.8-4.4s-5.7,1.8-6.8,4.4h-4.1v49.2h4.3c1.3,2.3,3.7,3.9,6.6,3.9
					c2.8,0,5.3-1.6,6.6-3.9h4.3L293.9,136.4L293.9,136.4z"/>
				<g>
					<path fill="#D0CFCE" d="M283,187.1c-2.1,0-4.1-1.2-5.1-3.1l-0.5-0.9h-3.6v-45.8h3.5l0.5-1c0.9-2.1,3-3.5,5.3-3.5
						c2.3,0,4.4,1.4,5.3,3.5l0.5,1h3.5v45.9h-3.6l-0.5,0.9C287,186,285.1,187.1,283,187.1z"/>
					<path fill="#E6E6E5" d="M283,134.6c1.6,0,3.1,1,3.8,2.5l0.9,2h2.2h0.7v42.5h-1h-2l-0.9,1.8c-0.7,1.3-2.1,2.2-3.6,2.2
						s-2.9-0.8-3.6-2.2l-0.9-1.8h-2h-1V139h0.7h2.2l0.9-2C279.9,135.6,281.3,134.6,283,134.6 M283,131.3c-3,0-5.7,1.8-6.8,4.4h-4.1
						v49.2h4.3c1.3,2.3,3.7,3.9,6.6,3.9c2.8,0,5.3-1.6,6.6-3.9h4.3v-49.2h-4.1C288.6,133.1,286,131.3,283,131.3L283,131.3z"/>
				</g>
				<rect x="290.6" y="138.4" fill="#FFFFFF" width="0.5" height="43.6"/>
				<rect x="274.9" y="138.4" fill="#FFFFFF" width="0.5" height="43.6"/>
				<path opacity="0.2" fill="#121921" enable-background="new    " d="M315.1,160.5c0,0-6.3-6.3-24.7,0.1c0,0-6,2.9-11.5-4.8
					c-0.2-0.2-0.3-0.5-0.5-0.7l0,0l0,0c-0.8-1-1.9-1.7-3.1-1.8c-2.9-0.4-5.3-1.9-5.8,1.5c-0.5,3.5,0.7,5.5,4.1,8.3
					c0,0,8.5,4.8,24.4-0.5c0,0,11.6-3.4,16.5,2.2c0,0,1.8,1.3,2.5,0.2C317.8,164,317.3,162.8,315.1,160.5z"/>
				<g>
					<path fill="#B9BABD" d="M317,154.5c0,0-7.1-5.8-25.5,2.2c0,0-6,3.4-12.3-3.8c-0.2-0.2-0.3-0.4-0.5-0.6l0,0l0,0
						c-0.9-0.9-2.1-1.5-3.4-1.6c-3-0.2-5.6,2.6-5.8,6c-0.2,3.5,2.2,6.4,5.2,6.5c0,0,9,1.5,24.9-5.2c0,0,11.7-4.4,17.2,0.8
						c0,0,1.9,1.2,2.6,0C320.2,157.7,319.5,156.5,317,154.5z"/>
				</g>
			</g>
			<path opacity="0.6" fill="#333333" enable-background="new    " d="M284.2,168.9c0-0.7-0.5-1.2-1.2-1.2c-0.6,0-1.2,0.5-1.2,1.2
				c0,0.4,0.2,0.8,0.5,1v1.6c0,0.3,0.2,0.5,0.5,0.5h0.3c0.3,0,0.5-0.2,0.5-0.5v-1.6C284,169.7,284.2,169.4,284.2,168.9z"/>
			<circle fill="#B9BABD" cx="282.9" cy="139.9" r="1.1"/>
			<circle fill="#B9BABD" cx="282.9" cy="179.1" r="1.1"/>
		</g>
		<path fill="#FFFFFF" d="M294.5,154.8c-0.2,0-0.3,0-0.4,0c-1.5,0.8-7.8,3.9-13.5-2.8c-0.2-0.2-0.3-0.5-0.5-0.6l0,0l0,0
			c-0.9-1-2.2-1.6-3.6-1.8c-3.3-0.3-6.4,2.2-6.8,5.6c-0.3,2.6,0.9,4.9,2.9,6.1c0.9-1.1,2.3-1.8,3.9-1.8c1,0,2,0.3,2.8,0.9
			c0.3-0.1,0.5-0.1,0.8-0.1c1,0,2,0.3,2.8,0.8c0.8-0.6,1.9-1,3-1c0.2,0,0.3,0,0.5,0c0.8-0.6,1.9-1,3-1c0.2,0,0.5,0,0.7,0.1
			c0.9-0.8,2.1-1.3,3.4-1.3c0.1,0,0.3,0,0.4,0c0.3-0.2,0.7-0.3,1.1-0.5c0,0,0-0.1,0-0.1c0.2-0.5,0.4-1.5,0.6-2
			C295.2,155.3,294.8,155.1,294.5,154.8z"/>
		<path fill="#E6E6E5" d="M316.8,153.8c0,0-7.1-5.8-25.5,2.2c0,0-6,3.4-12.3-3.8c-0.2-0.2-0.3-0.4-0.5-0.6l0,0l0,0
			c-0.9-0.9-2.1-1.5-3.4-1.6c-3-0.2-5.6,2.6-5.8,6c-0.2,3.5,2.2,6.4,5.2,6.5c0,0,9,1.5,24.9-5.2c0,0,11.7-4.4,17.2,0.8
			c0,0,1.9,1.2,2.6,0C319.9,157,319.2,155.8,316.8,153.8z"/>
	</g>
	<g opacity="0.9">
		<polygon opacity="0.1" fill="#121921" enable-background="new    " points="237,195.7 235.7,195.7 234.4,177.2 237,177.2 		"/>
		<polygon opacity="0.1" fill="#121921" enable-background="new    " points="237,176.3 235.7,176.3 234.4,157.7 237,157.7 		"/>
		<polygon opacity="0.1" fill="#121921" enable-background="new    " points="237,157.3 235.7,157.3 234.4,138.8 237,138.8 		"/>
		<polygon opacity="0.1" fill="#121921" enable-background="new    " points="237,137.9 235.7,137.9 234.4,119.3 237,119.3 		"/>
		<polygon opacity="0.1" fill="#121921" enable-background="new    " points="234.9,107.2 235.7,118.9 237,118.9 237,107.2 		"/>
		<polygon opacity="0.1" fill="#121921" enable-background="new    " points="237,213.3 237,196.7 234.4,196.7 235.6,213.3 		"/>
	</g>
	<rect x="237" y="107.5" fill="#FFFFFF" width="14" height="106.2"/>
	<rect x="244.7" y="107.5" opacity="0.8" fill="#D3D8E2" enable-background="new    " width="0.8" height="106.2"/>
	<rect x="242.2" y="107.5" opacity="0.8" fill="#D3D8E2" enable-background="new    " width="0.8" height="106.2"/>
	<rect x="247.9" y="107.5" opacity="0.8" fill="#D3D8E2" enable-background="new    " width="1.8" height="106.2"/>
	<g>
		<g opacity="0.25">
			<polygon fill="#121921" points="439.2,179.8 419.7,179.8 419.7,213.9 419.9,213.9 419.9,180.1 439.2,180.1 446.7,180.1 
				465.9,180.1 465.9,213.9 466.1,213.9 466.1,179.8 446.7,179.8 			"/>
			<polygon fill="#121921" points="446.7,178.9 439.2,178.9 418.7,178.9 418.7,213.9 419,213.9 419,179.1 439.2,179.1 446.7,179.1 
				466.8,179.1 466.8,213.9 467.1,213.9 467.1,178.9 			"/>
		</g>
		<g opacity="0.25">
			<polygon fill="#121921" points="446.4,168.9 465.8,168.9 465.8,107.3 465.6,107.3 465.6,168.7 446.4,168.7 439,168.7 
				419.9,168.7 419.9,107.3 419.7,107.3 419.7,168.9 439,168.9 			"/>
			<polygon fill="#121921" points="466.5,107.3 466.5,169.6 446.4,169.6 439,169.6 419,169.6 419,107.3 418.7,107.3 418.7,169.9 
				439,169.9 446.4,169.9 466.8,169.9 466.8,107.3 			"/>
		</g>
		<g>
			<rect x="502.7" y="107.5" fill="#FFFFFF" width="14" height="106.2"/>
			<rect x="508.1" y="107.5" opacity="0.8" fill="#D3D8E2" enable-background="new    " width="0.8" height="106.2"/>
			<rect x="510.5" y="107.5" opacity="0.8" fill="#D3D8E2" enable-background="new    " width="0.8" height="106.2"/>
			<rect x="503.9" y="107.5" opacity="0.8" fill="#D3D8E2" enable-background="new    " width="1.8" height="106.2"/>
		</g>
		<polygon opacity="0.25" fill="#121921" enable-background="new    " points="425.9,213.5 425.9,185.9 442.1,185.9 449.6,185.9 
			459.9,185.9 459.9,213.5 460.2,213.5 460.2,185.7 449.6,185.7 442.1,185.7 425.6,185.7 425.6,213.5 		"/>
	</g>
	<polygon opacity="0.25" fill="#121921" enable-background="new    " points="361.7,213.7 361.7,179.3 381.9,179.3 389.4,179.3 
		409.6,179.3 409.6,213.7 409.8,213.7 409.8,179 389.4,179 381.9,179 361.5,179 361.5,213.7 	"/>
	<polygon opacity="0.25" fill="#121921" enable-background="new    " points="362.7,213.7 362.7,180.2 381.9,180.2 389.4,180.2 
		408.6,180.2 408.6,213.7 408.9,213.7 408.9,180 389.4,180 381.9,180 362.5,180 362.5,213.7 	"/>
	<polygon opacity="0.25" fill="#121921" enable-background="new    " points="304.5,213.7 304.5,179.3 324.7,179.3 332.1,179.3 
		352.3,179.3 352.3,213.7 352.6,213.7 352.6,179 332.1,179 324.7,179 304.2,179 304.2,213.7 	"/>
	<polygon opacity="0.25" fill="#121921" enable-background="new    " points="305.4,213.7 305.4,180.2 324.7,180.2 332.1,180.2 
		351.4,180.2 351.4,213.7 351.6,213.7 351.6,180 332.1,180 324.7,180 305.2,180 305.2,213.7 	"/>
	<polygon opacity="0.25" fill="#101820" points="368.5,213.6 368.5,186 384.8,186 392.3,186 402.6,186 402.6,213.6 402.8,213.6 
		402.8,185.8 392.3,185.8 384.8,185.8 368.2,185.8 368.2,213.6 	"/>
	<polygon opacity="0.25" fill="#101820" points="311.1,213.6 311.1,186 327.4,186 334.9,186 345.2,186 345.2,213.6 345.5,213.6 
		345.5,185.8 334.9,185.8 327.4,185.8 310.8,185.8 310.8,213.6 	"/>
</g>
</svg>
