<?xml version="1.0" encoding="utf-8"?>
<!-- Generator: Adobe Illustrator 17.1.0, SVG Export Plug-In . SVG Version: 6.00 Build 0)  -->
<!DOCTYPE svg PUBLIC "-//W3C//DTD SVG 1.1//EN" "http://www.w3.org/Graphics/SVG/1.1/DTD/svg11.dtd">
<svg version="1.1" id="Layer_1" xmlns="http://www.w3.org/2000/svg" xmlns:xlink="http://www.w3.org/1999/xlink" x="0px" y="0px"
	 viewBox="-153 263.4 509 76.2" enable-background="new -153 263.4 509 76.2" xml:space="preserve">
<g>
	<rect x="158.3" y="262.1" fill="#7FAEAE" width="184.1" height="79.9"/>
	<path opacity="0.25" fill="#337E7D" d="M184.8,283.3v37h-2.7c0.4-0.8,0.6-1.7,0.6-2.6c0-3.4-2.7-6.1-6.1-6.1s-6.1,2.7-6.1,6.1
		c0,0.9,0.2,1.8,0.6,2.6h-2.7v0.4h2.9c1.1,1.8,3,3,5.3,3s4.2-1.2,5.3-3h2.9h0.4v-37.4H184.8z"/>
	<polygon opacity="0.4" fill="#CCDFDF" points="194.4,308.4 195.3,307.5 228.5,307.5 228.5,262.1 229.4,262.1 229.4,308.4 	"/>
	<polygon opacity="0.4" fill="#CCDFDF" points="199.6,303.2 198.7,304.1 198.7,262.1 199.6,262.1 	"/>
	<polygon opacity="0.4" fill="#CCDFDF" points="243.2,303.2 242.3,304.1 242.3,262.1 243.2,262.1 	"/>
	<polygon opacity="0.4" fill="#CCDFDF" points="286.8,303.2 285.9,304.1 285.9,262.1 286.8,262.1 	"/>
	<polygon opacity="0.4" fill="#CCDFDF" points="268.7,320.9 267.8,321.8 243.2,321.8 243.2,342 242.3,342 242.3,320.9 	"/>
	<polygon opacity="0.4" fill="#CCDFDF" points="312.3,320.9 311.4,321.8 286.8,321.8 286.8,342 285.9,342 285.9,320.9 	"/>
	<polygon opacity="0.4" fill="#CCDFDF" points="225.2,320.9 224.3,321.8 199.7,321.8 199.7,342 198.8,342 198.8,320.9 	"/>
	<polygon opacity="0.4" fill="#CCDFDF" points="228.6,317.5 229.5,316.6 229.5,342 228.6,342 	"/>
	<polygon opacity="0.4" fill="#337E7D" points="198.7,304.1 199.6,303.2 224.2,303.2 224.2,262.1 225.1,262.1 225.1,304.1 	"/>
	<polygon opacity="0.4" fill="#337E7D" points="195.3,307.5 194.3,308.4 194.3,262.1 195.3,262.1 	"/>
	<polygon opacity="0.4" fill="#CCDFDF" points="238,308.4 238.9,307.5 272.1,307.5 272.1,262.1 273,262.1 273,308.4 	"/>
	<polygon opacity="0.4" fill="#337E7D" points="238.9,307.5 238,308.4 238,262.1 238.9,262.1 	"/>
	<polygon opacity="0.4" fill="#CCDFDF" points="281.6,308.4 282.5,307.5 315.7,307.5 315.7,262.1 316.6,262.1 316.6,308.4 	"/>
	<polygon opacity="0.4" fill="#337E7D" points="282.5,307.5 281.6,308.4 281.6,262.1 282.5,262.1 	"/>
	<polygon opacity="0.4" fill="#337E7D" points="242.3,304.1 243.2,303.2 267.8,303.2 267.8,262.1 268.7,262.1 268.7,304.1 	"/>
	<polygon opacity="0.4" fill="#337E7D" points="285.9,304.1 286.8,303.2 311.4,303.2 311.4,262.1 312.3,262.1 312.3,304.1 	"/>
	<polygon opacity="0.4" fill="#337E7D" points="229.5,316.6 228.6,317.5 195.4,317.5 195.4,342 194.5,342 194.5,316.6 	"/>
	<polygon opacity="0.4" fill="#CCDFDF" points="272.2,317.5 273.1,316.6 273.1,342 272.2,342 	"/>
	<polygon opacity="0.4" fill="#337E7D" points="273.1,316.6 272.2,317.5 239,317.5 239,342 238.1,342 238.1,316.6 	"/>
	<polygon opacity="0.4" fill="#CCDFDF" points="315.7,317.5 316.6,316.6 316.6,342 315.7,342 	"/>
	<polygon opacity="0.4" fill="#337E7D" points="316.6,316.6 315.7,317.5 282.5,317.5 282.5,342 281.6,342 281.6,316.6 	"/>
	<polygon opacity="0.4" fill="#337E7D" points="267.8,321.8 268.7,320.9 268.7,342 267.8,342 	"/>
	<polygon opacity="0.4" fill="#337E7D" points="311.4,321.8 312.3,320.9 312.3,342 311.4,342 	"/>
	<polygon opacity="0.4" fill="#337E7D" points="224.3,321.8 225.2,320.9 225.2,342 224.3,342 	"/>
	<rect x="158.4" y="262" fill="none" width="192.1" height="80.4"/>
	<g>
		<rect x="342.4" y="262" fill="#FFFFFF" width="10.5" height="79.9"/>
		<rect x="346.5" y="262" opacity="0.8" fill="#D3D7E2" width="0.6" height="79.9"/>
		<rect x="348.3" y="262" opacity="0.8" fill="#D3D7E2" width="0.6" height="79.9"/>
		<rect x="343.4" y="262" opacity="0.8" fill="#D3D7E2" width="1.3" height="79.9"/>
	</g>
	<g>
		<g>
			<g>
				<path fill="#CFCFCD" d="M176.7,317.6C176.6,317.6,176.6,317.6,176.7,317.6l-1.7-3h-1v-26h1.1l1.5-3.3c0,0,0-0.1,0.1-0.1
					s0.1,0.1,0.1,0.1l1.5,3.3h1.1v26h-1L176.7,317.6C176.7,317.6,176.7,317.6,176.7,317.6z"/>
				<path fill="#E6E6E5" d="M176.7,279.8c-2.3,0-4.3,1.4-5.1,3.3h-3.1v37h3.2c0.9,1.8,2.8,3,4.9,3c2.1,0,4-1.2,4.9-3h3.2v-37h-3.1
					C180.9,281.2,179,279.8,176.7,279.8L176.7,279.8z"/>
			</g>
			<rect x="182.2" y="285.2" fill="#F1F2F2" width="0.4" height="32.9"/>
			<rect x="170.6" y="285.2" fill="#F1F2F2" width="0.4" height="32.9"/>
			<path opacity="0.6" fill="#333333" d="M177.6,308.2c0-0.5-0.4-0.9-0.9-0.9s-0.9,0.4-0.9,0.9c0,0.3,0.2,0.6,0.4,0.7v1.2
				c0,0.2,0.2,0.4,0.4,0.4h0.2c0.2,0,0.4-0.2,0.4-0.4v-1.2C177.4,308.8,177.6,308.5,177.6,308.2z"/>
			<circle fill="#B9BABC" cx="176.6" cy="286.3" r="0.8"/>
			<circle fill="#B9BABC" cx="176.6" cy="315.9" r="0.8"/>
		</g>
		<path opacity="0.2" fill="#101820" d="M207.7,305.7c-4.9-8.5-24.8-13.2-31.6-10.9l0,0c-1.6,0.4-2.9,1.7-3.3,3.4
			c-0.6,2.5,1,5,3.5,5.5c2.5,0.6,5-1,5.5-3.5c0.1-0.6,0.1-1.1,0.1-1.6c6.3-1.5,18.9,1.8,23.6,8.4l0,0c0.2,0.3,0.4,0.5,0.7,0.6
			c0.7,0.2,1.4-0.2,1.6-0.9C208,306.4,208,306,207.7,305.7z"/>
		<g>
			<circle fill="#E6E6E5" cx="176.6" cy="299" r="4.6"/>
			<circle fill="#E6E6E5" cx="206.7" cy="299.5" r="1.3"/>
			<path fill="#E6E6E5" d="M174.4,294.9l4.4,4.1c3.5-4.4,20-4.9,27.1,1.4l1.9-1.7C201.2,291.4,180.6,291.1,174.4,294.9z"/>
		</g>
	</g>
	<rect x="158.6" y="261.7" fill="#7FAEAE" width="184.1" height="79.9"/>
	<path opacity="0.25" fill="#337E7D" d="M185.2,282.9v37h-2.7c0.4-0.8,0.6-1.7,0.6-2.6c0-3.4-2.7-6.1-6.1-6.1s-6.1,2.7-6.1,6.1
		c0,0.9,0.2,1.8,0.6,2.6h-2.7v0.4h2.9c1.1,1.8,3,3,5.3,3s4.2-1.2,5.3-3h2.9h0.4v-37.4H185.2z"/>
	<polygon opacity="0.4" fill="#CCDFDF" points="194.7,308.1 195.6,307.2 228.8,307.2 228.8,261.7 229.7,261.7 229.7,308.1 	"/>
	<polygon opacity="0.4" fill="#CCDFDF" points="199.9,302.9 199,303.8 199,261.7 199.9,261.7 	"/>
	<polygon opacity="0.4" fill="#CCDFDF" points="243.6,302.9 242.7,303.8 242.7,261.7 243.6,261.7 	"/>
	<polygon opacity="0.4" fill="#CCDFDF" points="287.2,302.9 286.3,303.8 286.3,261.7 287.2,261.7 	"/>
	<polygon opacity="0.4" fill="#CCDFDF" points="269,320.6 268.1,321.5 243.5,321.5 243.5,341.6 242.6,341.6 242.6,320.6 	"/>
	<polygon opacity="0.4" fill="#CCDFDF" points="312.6,320.6 311.7,321.5 287.1,321.5 287.1,341.6 286.2,341.6 286.2,320.6 	"/>
	<polygon opacity="0.4" fill="#CCDFDF" points="225.5,320.6 224.6,321.5 200,321.5 200,341.6 199.1,341.6 199.1,320.6 	"/>
	<polygon opacity="0.4" fill="#CCDFDF" points="228.9,317.1 229.8,316.2 229.8,341.6 228.9,341.6 	"/>
	<polygon opacity="0.4" fill="#337E7D" points="199,303.8 199.9,302.9 224.5,302.9 224.5,261.7 225.4,261.7 225.4,303.8 	"/>
	<polygon opacity="0.4" fill="#337E7D" points="195.6,307.2 194.7,308.1 194.7,261.7 195.6,261.7 	"/>
	<polygon opacity="0.4" fill="#CCDFDF" points="238.3,308.1 239.2,307.2 272.4,307.2 272.4,261.7 273.3,261.7 273.3,308.1 	"/>
	<polygon opacity="0.4" fill="#337E7D" points="239.2,307.2 238.3,308.1 238.3,261.7 239.2,261.7 	"/>
	<polygon opacity="0.4" fill="#CCDFDF" points="281.9,308.1 282.8,307.2 316,307.2 316,261.7 316.9,261.7 316.9,308.1 	"/>
	<polygon opacity="0.4" fill="#337E7D" points="282.8,307.2 281.9,308.1 281.9,261.7 282.8,261.7 	"/>
	<polygon opacity="0.4" fill="#337E7D" points="242.7,303.8 243.6,302.9 268.1,302.9 268.1,261.7 269.1,261.7 269.1,303.8 	"/>
	<polygon opacity="0.4" fill="#337E7D" points="286.3,303.8 287.2,302.9 311.8,302.9 311.8,261.7 312.7,261.7 312.7,303.8 	"/>
	<polygon opacity="0.4" fill="#337E7D" points="229.8,316.2 228.9,317.1 195.7,317.1 195.7,341.6 194.8,341.6 194.8,316.2 	"/>
	<polygon opacity="0.4" fill="#CCDFDF" points="272.5,317.1 273.4,316.2 273.4,341.6 272.5,341.6 	"/>
	<polygon opacity="0.4" fill="#337E7D" points="273.4,316.2 272.5,317.1 239.3,317.1 239.3,341.6 238.4,341.6 238.4,316.2 	"/>
	<polygon opacity="0.4" fill="#CCDFDF" points="316.1,317.1 317,316.2 317,341.6 316.1,341.6 	"/>
	<polygon opacity="0.4" fill="#337E7D" points="317,316.2 316.1,317.1 282.9,317.1 282.9,341.6 282,341.6 282,316.2 	"/>
	<polygon opacity="0.4" fill="#337E7D" points="268.1,321.5 269,320.6 269,341.6 268.1,341.6 	"/>
	<polygon opacity="0.4" fill="#337E7D" points="311.7,321.5 312.6,320.6 312.6,341.6 311.7,341.6 	"/>
	<polygon opacity="0.4" fill="#337E7D" points="224.6,321.5 225.5,320.6 225.5,341.6 224.6,341.6 	"/>
	<rect x="158.8" y="261.7" fill="none" width="192.1" height="80.4"/>
	<g>
		<g>
			<g>
				<g>
					<path fill="#CFCFCD" d="M177,317.4C176.9,317.4,176.9,317.4,177,317.4l-1.7-3h-1v-26h1.1l1.5-3.3c0,0,0-0.1,0.1-0.1
						c0.1,0,0.1,0.1,0.1,0.1l1.5,3.3h1.1v26h-1L177,317.4C177.1,317.4,177,317.4,177,317.4z"/>
					<path fill="#E6E6E5" d="M177,279.6c-2.3,0-4.3,1.4-5.1,3.3h-3.1v37h3.2c0.9,1.8,2.8,3,4.9,3c2.1,0,4-1.2,4.9-3h3.2v-37h-3.1
						C181.2,281,179.3,279.6,177,279.6L177,279.6z"/>
				</g>
				<rect x="182.7" y="285" fill="#FFFFFF" width="0.4" height="32.9"/>
				<rect x="170.9" y="285" fill="#FFFFFF" width="0.4" height="32.9"/>
				<path opacity="0.2" fill="#101820" d="M201.2,301.6c0,0-4.7-4.7-18.6,0.1c0,0-4.5,2.2-8.6-3.6c-0.1-0.2-0.2-0.3-0.3-0.5
					c0,0,0,0,0,0v0c-0.6-0.7-1.4-1.3-2.3-1.4c-2.2-0.3-4-1.4-4.4,1.2c-0.3,2.6,0.5,4.1,3.1,6.3c0,0,6.4,3.6,18.3-0.4
					c0,0,8.7-2.6,12.4,1.6c0,0,1.3,1,1.9,0.2C203.2,304.2,202.8,303.3,201.2,301.6z"/>
				<g>
					<path fill="#B9BABC" d="M202.6,297.1c0,0-5.3-4.3-19.2,1.6c0,0-4.5,2.6-9.3-2.9c-0.1-0.2-0.3-0.3-0.4-0.5c0,0,0,0,0,0v0
						c-0.7-0.7-1.6-1.1-2.6-1.2c-2.3-0.1-4.2,1.9-4.4,4.5c-0.1,2.6,1.6,4.8,3.9,4.9c0,0,6.7,1.1,18.7-3.9c0,0,8.8-3.3,13,0.6
						c0,0,1.4,0.9,2,0C205,299.5,204.5,298.6,202.6,297.1z"/>
				</g>
			</g>
			<path opacity="0.6" fill="#333333" d="M177.9,308c0-0.5-0.4-0.9-0.9-0.9s-0.9,0.4-0.9,0.9c0,0.3,0.2,0.6,0.4,0.7v1.2
				c0,0.2,0.2,0.4,0.4,0.4h0.2c0.2,0,0.4-0.2,0.4-0.4v-1.2C177.8,308.6,177.9,308.3,177.9,308z"/>
			<circle fill="#B9BABC" cx="176.9" cy="286.1" r="0.8"/>
			<circle fill="#B9BABC" cx="176.9" cy="315.6" r="0.8"/>
		</g>
		<path fill="#FFFFFF" d="M185.6,297.3c-0.1,0-0.2,0-0.3,0c-1.1,0.6-5.9,2.9-10.2-2.1c-0.1-0.2-0.3-0.3-0.4-0.5c0,0,0,0,0,0v0
			c-0.7-0.7-1.6-1.2-2.7-1.3c-2.5-0.3-4.8,1.6-5.1,4.2c-0.2,1.9,0.7,3.7,2.2,4.6c0.7-0.8,1.8-1.3,2.9-1.3c0.8,0,1.5,0.2,2.1,0.7
			c0.2,0,0.4-0.1,0.6-0.1c0.8,0,1.5,0.2,2.1,0.6c0.6-0.5,1.4-0.7,2.3-0.7c0.1,0,0.3,0,0.4,0c0.6-0.5,1.4-0.7,2.3-0.7
			c0.2,0,0.4,0,0.6,0c0.7-0.6,1.6-1,2.6-1c0.1,0,0.2,0,0.3,0c0.3-0.1,0.5-0.3,0.8-0.3c0,0,0,0,0-0.1c0.1-0.3,0.3-1.2,0.5-1.5
			C186.2,297.7,185.9,297.5,185.6,297.3z"/>
		<path fill="#E6E6E5" d="M202.4,296.5c0,0-5.3-4.3-19.2,1.6c0,0-4.5,2.6-9.3-2.9c-0.1-0.2-0.3-0.3-0.4-0.5c0,0,0,0,0,0v0
			c-0.7-0.7-1.6-1.1-2.6-1.2c-2.3-0.1-4.2,1.9-4.4,4.5c-0.1,2.6,1.6,4.8,3.9,4.9c0,0,6.7,1.1,18.7-3.9c0,0,8.8-3.3,13,0.6
			c0,0,1.5,0.9,2,0C204.8,298.9,204.3,298.1,202.4,296.5z"/>
	</g>
	<g>
		<rect x="342.8" y="261.7" fill="#FFFFFF" width="10.5" height="79.9"/>
		<rect x="346.8" y="261.7" opacity="0.8" fill="#D3D7E2" width="0.6" height="79.9"/>
		<rect x="348.7" y="261.7" opacity="0.8" fill="#D3D7E2" width="0.6" height="79.9"/>
		<rect x="343.7" y="261.7" opacity="0.8" fill="#D3D7E2" width="1.3" height="79.9"/>
	</g>
</g>
<g display="none">
	<g display="inline">
		<polygon opacity="0.25" fill="#121921" enable-background="new    " points="247.5,273.7 247.5,303.4 238.8,303.4 234.8,303.4 
			229.3,303.4 229.3,273.7 229.2,273.7 229.2,303.4 234.8,303.4 238.8,303.4 247.6,303.4 247.6,273.7 		"/>
		<polygon opacity="0.25" fill="#121921" enable-background="new    " points="217,273.7 217,303.4 208.3,303.4 204.3,303.4 
			198.9,303.4 198.9,273.7 198.7,288.7 198.7,303.4 204.3,303.4 208.3,303.4 217.1,303.4 217.1,273.7 		"/>
		<polygon opacity="0.25" fill="#121921" enable-background="new    " points="277.9,273.7 277.9,303.4 269.3,303.4 265.3,303.4 
			259.8,303.4 259.8,273.7 259.7,273.7 259.7,303.4 265.3,303.4 269.3,303.4 278,303.4 278,273.7 		"/>
	</g>
	
		<rect id="background_2_" x="159.3" y="273.7" display="inline" opacity="0.8" fill="#121921" enable-background="new    " width="11.3" height="56.5"/>
	<rect x="-69.5" y="273.7" display="inline" fill="#E4E2E0" width="236.2" height="56.5"/>
	<g display="inline" opacity="0.15">
		<g opacity="0.2">
			<rect x="-69.5" y="279.6" fill="#23356E" width="226.6" height="0.4"/>
			<rect x="-69.5" y="280.1" fill="#FFFFFF" width="226.6" height="2.2"/>
		</g>
		<g opacity="0.2">
			<rect x="-69.5" y="290" fill="#121921" width="226.6" height="0.4"/>
			<rect x="-69.5" y="290.3" fill="#FFFFFF" width="226.6" height="2.2"/>
		</g>
		<g opacity="0.2">
			<rect x="-69.5" y="300.1" fill="#121921" width="226.6" height="0.4"/>
			<rect x="-69.5" y="300.5" fill="#FFFFFF" width="226.6" height="2.2"/>
		</g>
		<g opacity="0.2">
			<rect x="-69.5" y="310.4" fill="#121921" width="226.6" height="0.4"/>
			<rect x="-69.5" y="310.8" fill="#FFFFFF" width="226.6" height="2.2"/>
		</g>
		<g opacity="0.2">
			<rect x="-69.5" y="320.7" fill="#121921" width="226.6" height="0.4"/>
			<rect x="-69.5" y="321.1" fill="#FFFFFF" width="226.6" height="2.2"/>
		</g>
	</g>
	<polygon display="inline" fill="#76797C" points="170.5,299.9 169.8,299.9 170,302.1 170.5,302.1 	"/>
	<rect x="170.5" y="273.7" display="inline" fill="#7FADAD" width="130.3" height="56.5"/>
	<rect x="170.5" y="273.7" display="inline" fill="none" width="135.9" height="56.8"/>
	<g display="inline" opacity="0.25">
		<polygon fill="#121921" points="209.8,306.5 220.2,306.5 220.2,273.7 220,273.7 220,306.4 209.8,306.4 205.9,306.4 195.7,306.4 
			195.7,273.7 195.6,273.7 195.6,306.5 205.9,306.5 		"/>
		<polygon fill="#121921" points="220.5,273.7 220.5,306.9 209.8,306.9 205.9,306.9 195.2,306.9 195.2,273.7 195.1,273.7 195.1,307 
			205.9,307 209.8,307 220.7,307 220.7,273.7 		"/>
	</g>
	<g display="inline" opacity="0.25">
		<polygon fill="#121921" points="240.3,306.5 250.6,306.5 250.6,273.7 250.5,273.7 250.5,306.4 240.3,306.4 236.4,306.4 
			226.2,306.4 226.2,273.7 226,273.7 226,306.5 236.4,306.5 		"/>
		<polygon fill="#121921" points="251,273.7 251,306.9 240.3,306.9 236.4,306.9 225.7,306.9 225.7,273.7 225.5,273.7 225.5,307 
			236.4,307 240.3,307 251.1,307 251.1,273.7 		"/>
	</g>
	<g display="inline">
		<g>
			<g>
				<path fill="#D0CFCE" d="M189.5,289.1h-2.2c-0.6-1.4-2-2.4-3.7-2.4s-3,0.9-3.7,2.4h-2.2v26.2h2.3c0.6,1.2,2,2.1,3.5,2.1
					s2.8-0.9,3.5-2.1h2.3V289.1L189.5,289.1z"/>
				<g>
					<path fill="#D0CFCE" d="M183.7,316.1c-1.1,0-2.2-0.6-2.7-1.6l-0.3-0.5h-1.9v-24.4h1.9l0.2-0.5c0.5-1.1,1.6-1.9,2.8-1.9
						c1.2,0,2.3,0.7,2.8,1.9l0.2,0.5h1.9V314h-1.9l-0.3,0.5C185.9,315.5,184.9,316.1,183.7,316.1z"/>
					<path fill="#E6E6E5" d="M183.7,288.2c0.9,0,1.6,0.5,2,1.3l0.5,1.1h1.1h0.4v22.7h-0.5h-1.1l-0.5,0.9c-0.4,0.7-1.1,1.1-1.9,1.1
						c-0.8,0-1.6-0.4-1.9-1.1l-0.5-0.9h-1.1h-0.5v-22.6h0.4h1.1l0.5-1.1C182.1,288.7,182.9,288.2,183.7,288.2 M183.7,286.4
						c-1.6,0-3,0.9-3.7,2.4h-2.2v26.2h2.3c0.6,1.2,2,2.1,3.5,2.1s2.8-0.9,3.5-2.1h2.3v-26.2h-2.2
						C186.7,287.3,185.4,286.4,183.7,286.4L183.7,286.4z"/>
				</g>
				<rect x="187.8" y="290.2" fill="#FFFFFF" width="0.3" height="23.2"/>
				<rect x="179.4" y="290.2" fill="#FFFFFF" width="0.3" height="23.2"/>
				<path opacity="0.2" fill="#121921" enable-background="new    " d="M200.9,301.9c0,0-3.4-3.4-13.1,0.1c0,0-3.2,1.6-6.1-2.6
					c-0.1-0.1-0.1-0.2-0.2-0.4l0,0l0,0c-0.4-0.5-1-0.9-1.6-0.9c-1.6-0.2-2.9-1-3.1,0.8c-0.2,1.9,0.4,2.9,2.2,4.4c0,0,4.5,2.6,13-0.3
					c0,0,6.2-1.8,8.8,1.1c0,0,0.9,0.7,1.4,0.1C202.3,303.8,202,303.2,200.9,301.9z"/>
				<g>
					<path fill="#B9BABD" d="M201.9,298.7c0,0-3.7-3.1-13.6,1.1c0,0-3.2,1.8-6.5-2c-0.1-0.1-0.1-0.2-0.3-0.3l0,0l0,0
						c-0.5-0.5-1.1-0.8-1.8-0.9c-1.6-0.1-3,1.4-3.1,3.2c-0.1,1.9,1.1,3.4,2.7,3.5c0,0,4.8,0.8,13.3-2.7c0,0,6.2-2.3,9.2,0.4
						c0,0,1,0.6,1.4,0C203.5,300.4,203.2,299.9,201.9,298.7z"/>
				</g>
			</g>
			<path opacity="0.6" fill="#333333" enable-background="new    " d="M184.4,306.5c0-0.4-0.3-0.6-0.6-0.6s-0.6,0.3-0.6,0.6
				c0,0.2,0.1,0.4,0.3,0.5v0.9c0,0.1,0.1,0.3,0.3,0.3h0.1c0.1,0,0.3-0.1,0.3-0.3V307C184.3,306.8,184.4,306.7,184.4,306.5z"/>
			<circle fill="#B9BABD" cx="183.7" cy="291" r="0.6"/>
			<circle fill="#B9BABD" cx="183.7" cy="311.8" r="0.6"/>
		</g>
		<path fill="#FFFFFF" d="M189.9,298.9c-0.1,0-0.1,0-0.2,0c-0.8,0.4-4.2,2.1-7.2-1.5c-0.1-0.1-0.1-0.2-0.3-0.4l0,0l0,0
			c-0.5-0.5-1.1-0.9-1.9-0.9c-1.8-0.1-3.4,1.1-3.7,3c-0.1,1.4,0.5,2.7,1.6,3.2c0.5-0.6,1.2-0.9,2.1-0.9c0.6,0,1.1,0.1,1.5,0.5
			c0.1,0,0.3,0,0.4,0c0.5,0,1.1,0.1,1.5,0.4c0.4-0.3,1-0.5,1.6-0.5c0.1,0,0.1,0,0.3,0c0.4-0.4,1-0.5,1.6-0.5c0.1,0,0.3,0,0.4,0
			c0.5-0.4,1.1-0.7,1.8-0.7c0.1,0,0.1,0,0.2,0c0.1-0.1,0.4-0.1,0.6-0.2c0,0,0,0,0-0.1c0.1-0.2,0.2-0.8,0.3-1.1
			C190.3,299.2,190,299.1,189.9,298.9z"/>
		<path fill="#E6E6E5" d="M201.7,298.3c0,0-3.7-3.1-13.6,1.1c0,0-3.2,1.8-6.5-2c-0.1-0.1-0.1-0.2-0.3-0.3l0,0l0,0
			c-0.5-0.5-1.1-0.8-1.8-0.9c-1.6-0.1-3,1.4-3.1,3.2c-0.1,1.9,1.1,3.4,2.8,3.5c0,0,4.8,0.8,13.3-2.7c0,0,6.2-2.3,9.2,0.4
			c0,0,1,0.6,1.4,0C203.4,300.1,203.1,299.4,201.7,298.3z"/>
	</g>
	<g display="inline" opacity="0.9">
		<polygon opacity="0.1" fill="#121921" enable-background="new    " points="159.3,320.7 158.6,320.7 157.9,310.8 159.3,310.8 		
			"/>
		<polygon opacity="0.1" fill="#121921" enable-background="new    " points="159.3,310.3 158.6,310.3 157.9,300.4 159.3,300.4 		
			"/>
		<polygon opacity="0.1" fill="#121921" enable-background="new    " points="159.3,300.2 158.6,300.2 157.9,290.4 159.3,290.4 		
			"/>
		<polygon opacity="0.1" fill="#121921" enable-background="new    " points="159.3,289.9 158.6,289.9 157.9,280 159.3,280 		"/>
		<polygon opacity="0.1" fill="#121921" enable-background="new    " points="158.2,273.5 158.6,279.8 159.3,279.8 159.3,273.5 		
			"/>
		<polygon opacity="0.1" fill="#121921" enable-background="new    " points="159.3,330.1 159.3,321.2 157.9,321.2 158.5,330.1 		
			"/>
	</g>
	<rect x="159.3" y="273.7" display="inline" fill="#FFFFFF" width="7.5" height="56.5"/>
	<rect x="163.4" y="273.7" display="inline" opacity="0.8" fill="#D3D8E2" enable-background="new    " width="0.4" height="56.5"/>
	<rect x="162.1" y="273.7" display="inline" opacity="0.8" fill="#D3D8E2" enable-background="new    " width="0.4" height="56.5"/>
	<rect x="165.1" y="273.7" display="inline" opacity="0.8" fill="#D3D8E2" enable-background="new    " width="0.9" height="56.5"/>
	<g display="inline">
		<g opacity="0.25">
			<polygon fill="#121921" points="266.9,312.2 256.5,312.2 256.5,330.3 256.7,330.3 256.7,312.3 266.9,312.3 270.9,312.3 
				281.1,312.3 281.1,330.3 281.2,330.3 281.2,312.2 270.9,312.2 			"/>
			<polygon fill="#121921" points="270.9,311.7 266.9,311.7 256,311.7 256,330.3 256.2,330.3 256.2,311.8 266.9,311.8 270.9,311.8 
				281.6,311.8 281.6,330.3 281.8,330.3 281.8,311.7 			"/>
		</g>
		<g opacity="0.25">
			<polygon fill="#121921" points="270.7,306.4 281.1,306.4 281.1,273.6 281,273.6 281,306.2 270.7,306.2 266.9,306.2 256.7,306.2 
				256.7,273.6 256.5,273.6 256.5,306.4 266.9,306.4 			"/>
			<polygon fill="#121921" points="281.4,273.6 281.4,306.8 270.7,306.8 266.9,306.8 256.2,306.8 256.2,273.6 256,273.6 256,306.9 
				266.9,306.9 270.7,306.9 281.6,306.9 281.6,273.6 			"/>
		</g>
		<g>
			<rect x="300.7" y="273.7" fill="#FFFFFF" width="7.5" height="56.5"/>
			<rect x="303.6" y="273.7" opacity="0.8" fill="#D3D8E2" enable-background="new    " width="0.4" height="56.5"/>
			<rect x="304.9" y="273.7" opacity="0.8" fill="#D3D8E2" enable-background="new    " width="0.4" height="56.5"/>
			<rect x="301.4" y="273.7" opacity="0.8" fill="#D3D8E2" enable-background="new    " width="0.9" height="56.5"/>
		</g>
		<polygon opacity="0.25" fill="#121921" enable-background="new    " points="259.8,330.1 259.8,315.5 268.5,315.5 272.5,315.5 
			277.9,315.5 277.9,330.1 278,330.1 278,315.3 272.5,315.3 268.5,315.3 259.7,315.3 259.7,330.1 		"/>
	</g>
	<polygon display="inline" opacity="0.25" fill="#121921" enable-background="new    " points="225.7,330.3 225.7,311.9 
		236.4,311.9 240.4,311.9 251.1,311.9 251.1,330.3 251.3,330.3 251.3,311.8 240.4,311.8 236.4,311.8 225.5,311.8 225.5,330.3 	"/>
	<polygon display="inline" opacity="0.25" fill="#121921" enable-background="new    " points="226.2,330.3 226.2,312.4 
		236.4,312.4 240.4,312.4 250.6,312.4 250.6,330.3 250.8,330.3 250.8,312.3 240.4,312.3 236.4,312.3 226,312.3 226,330.3 	"/>
	<polygon display="inline" opacity="0.25" fill="#121921" enable-background="new    " points="195.2,330.3 195.2,311.9 206,311.9 
		209.9,311.9 220.7,311.9 220.7,330.3 220.8,330.3 220.8,311.8 209.9,311.8 206,311.8 195.1,311.8 195.1,330.3 	"/>
	<polygon display="inline" opacity="0.25" fill="#121921" enable-background="new    " points="195.7,330.3 195.7,312.4 206,312.4 
		209.9,312.4 220.2,312.4 220.2,330.3 220.3,330.3 220.3,312.3 209.9,312.3 206,312.3 195.6,312.3 195.6,330.3 	"/>
	<polygon display="inline" opacity="0.25" fill="#101820" enable-background="new    " points="229.3,330.2 229.3,315.5 238,315.5 
		242,315.5 247.4,315.5 247.4,330.2 247.6,330.2 247.6,315.4 242,315.4 238,315.4 229.1,315.4 229.1,330.2 	"/>
	<polygon display="inline" opacity="0.25" fill="#101820" enable-background="new    " points="198.7,330.2 198.7,315.5 
		207.4,315.5 211.4,315.5 216.9,315.5 216.9,330.2 217,330.2 217,315.4 211.4,315.4 207.4,315.4 198.6,315.4 198.6,330.2 	"/>
</g>
<rect id="background_1_" x="143.3" y="263.4" opacity="0.8" fill="#121921" enable-background="new    " width="15.2" height="76.2"/>
<rect x="-165" y="263.4" fill="#E4E2E0" width="318.3" height="76.2"/>
<g opacity="0.15">
	<g opacity="0.2">
		<rect x="-165" y="271.4" fill="#23356E" width="305.3" height="0.6"/>
		<rect x="-165" y="272" fill="#FFFFFF" width="305.3" height="3"/>
	</g>
	<g opacity="0.2">
		<rect x="-165" y="285.3" fill="#121921" width="305.3" height="0.6"/>
		<rect x="-165" y="285.8" fill="#FFFFFF" width="305.3" height="3"/>
	</g>
	<g opacity="0.2">
		<rect x="-165" y="299" fill="#121921" width="305.3" height="0.6"/>
		<rect x="-165" y="299.5" fill="#FFFFFF" width="305.3" height="3"/>
	</g>
	<g opacity="0.2">
		<rect x="-165" y="312.9" fill="#121921" width="305.3" height="0.6"/>
		<rect x="-165" y="313.4" fill="#FFFFFF" width="305.3" height="3"/>
	</g>
	<g opacity="0.2">
		<rect x="-165" y="326.8" fill="#121921" width="305.3" height="0.6"/>
		<rect x="-165" y="327.3" fill="#FFFFFF" width="305.3" height="3"/>
	</g>
</g>
<polygon fill="#76797C" points="158.5,298.7 157.5,298.7 157.7,301.6 158.5,301.6 "/>
<g opacity="0.9">
	<polygon opacity="0.1" fill="#121921" enable-background="new    " points="143.3,326.7 142.4,326.7 141.5,313.4 143.3,313.4 	"/>
	<polygon opacity="0.1" fill="#121921" enable-background="new    " points="143.3,312.8 142.4,312.8 141.5,299.4 143.3,299.4 	"/>
	<polygon opacity="0.1" fill="#121921" enable-background="new    " points="143.3,299.1 142.4,299.1 141.5,285.9 143.3,285.9 	"/>
	<polygon opacity="0.1" fill="#121921" enable-background="new    " points="143.3,285.2 142.4,285.2 141.5,271.9 143.3,271.9 	"/>
	<polygon opacity="0.1" fill="#121921" enable-background="new    " points="141.8,263.2 142.4,271.6 143.3,271.6 143.3,263.2 	"/>
	<polygon opacity="0.1" fill="#121921" enable-background="new    " points="143.3,339.3 143.3,327.4 141.5,327.4 142.3,339.3 	"/>
</g>
<rect x="143.3" y="263.4" fill="#FFFFFF" width="10" height="76.2"/>
<rect x="148.8" y="263.4" opacity="0.8" fill="#D3D8E2" enable-background="new    " width="0.6" height="76.2"/>
<rect x="147.1" y="263.4" opacity="0.8" fill="#D3D8E2" enable-background="new    " width="0.6" height="76.2"/>
<rect x="151.1" y="263.4" opacity="0.8" fill="#D3D8E2" enable-background="new    " width="1.3" height="76.2"/>
</svg>
